<?xml version="1.0" encoding="UTF-8"?>
<!DOCTYPE svg PUBLIC "-//W3C//DTD SVG 1.1//EN" "http://www.w3.org/Graphics/SVG/1.1/DTD/svg11.dtd">
<svg xmlns="http://www.w3.org/2000/svg" version="1.1" width="400px" height="400px" style="shape-rendering:geometricPrecision; text-rendering:geometricPrecision; image-rendering:optimizeQuality; fill-rule:evenodd; clip-rule:evenodd" xmlns:xlink="http://www.w3.org/1999/xlink">
<g><path style="opacity:1" fill="#000000" d="M 147.5,39.5 C 148.239,39.369 148.906,39.5357 149.5,40C 123,66.5 96.5,93 70,119.5C 69.6667,157.833 69.3333,196.167 69,234.5C 59.3333,244.167 49.6667,253.833 40,263.5C 39.5001,281.83 39.3334,300.164 39.5,318.5C 45.8333,318.5 52.1667,318.5 58.5,318.5C 58.8333,265.167 59.1667,265.167 59.5,318.5C 65.8333,318.5 72.1667,318.5 78.5,318.5C 78.8333,265.167 79.1667,265.167 79.5,318.5C 85.8333,318.5 92.1667,318.5 98.5,318.5C 98.8333,265.167 99.1667,265.167 99.5,318.5C 105.833,318.5 112.167,318.5 118.5,318.5C 118.167,305.15 118.501,291.817 119.5,278.5C 125.485,283.985 131.319,289.652 137,295.5C 140.833,291.667 144.667,287.833 148.5,284C 132,267.5 115.5,251 99,234.5C 98.3333,198.167 98.3333,161.833 99,125.5C 115.167,109.333 131.333,93.1667 147.5,77C 148.167,76.3333 148.833,76.3333 149.5,77C 133,93.5 116.5,110 100,126.5C 99.3333,162.167 99.3333,197.833 100,233.5C 116.875,250.041 133.375,266.874 149.5,284C 146,288.833 141.833,293 137,296.5C 131.043,291.545 125.377,286.212 120,280.5C 119.5,293.496 119.333,306.496 119.5,319.5C 92.5,319.5 65.5,319.5 38.5,319.5C 38.3334,300.497 38.5001,281.497 39,262.5C 48.6667,252.833 58.3333,243.167 68,233.5C 68.3333,195.167 68.6667,156.833 69,118.5C 95.3682,92.2987 121.535,65.9653 147.5,39.5 Z"/></g>
<g><path style="opacity:1" fill="#000000" d="M 249.5,42.5 C 249.897,41.475 250.563,41.3083 251.5,42C 277.333,67.8333 303.167,93.6667 329,119.5C 329.333,158.5 329.667,197.5 330,236.5C 339.667,246.167 349.333,255.833 359,265.5C 359.5,283.83 359.667,302.164 359.5,320.5C 332.5,320.5 305.5,320.5 278.5,320.5C 278.667,307.496 278.5,294.496 278,281.5C 272.623,287.212 266.957,292.545 261,297.5C 256.5,294.333 252.667,290.5 249.5,286C 265.292,269.207 281.459,252.707 298,236.5C 298.667,200.167 298.667,163.833 298,127.5C 281.833,111.333 265.667,95.1667 249.5,79C 250.167,78.3333 250.833,78.3333 251.5,79C 267.333,94.8333 283.167,110.667 299,126.5C 299.667,163.5 299.667,200.5 299,237.5C 282.833,253.667 266.667,269.833 250.5,286C 254,289.5 257.5,293 261,296.5C 266.681,290.652 272.515,284.985 278.5,279.5C 279.499,292.817 279.833,306.15 279.5,319.5C 285.833,319.5 292.167,319.5 298.5,319.5C 298.833,266.167 299.167,266.167 299.5,319.5C 305.833,319.5 312.167,319.5 318.5,319.5C 318.833,266.167 319.167,266.167 319.5,319.5C 325.833,319.5 332.167,319.5 338.5,319.5C 338.833,266.167 339.167,266.167 339.5,319.5C 345.833,319.5 352.167,319.5 358.5,319.5C 358.667,301.83 358.5,284.164 358,266.5C 348.333,256.833 338.667,247.167 329,237.5C 328.667,198.5 328.333,159.5 328,120.5C 301.965,94.2984 275.799,68.2984 249.5,42.5 Z"/></g>
<g><path style="opacity:1" fill="#000000" d="M 344.5,285.5 C 347.5,285.5 350.5,285.5 353.5,285.5C 353.5,288.5 353.5,291.5 353.5,294.5C 350.5,294.5 347.5,294.5 344.5,294.5C 344.5,291.5 344.5,288.5 344.5,285.5 Z"/></g>
<g><path style="opacity:1" fill="#000000" d="M 344.5,298.5 C 347.5,298.5 350.5,298.5 353.5,298.5C 353.91,304.793 351.243,309.459 345.5,312.5C 344.479,311.998 344.312,311.332 345,310.5C 347.018,308.65 348.851,306.65 350.5,304.5C 348.604,303.534 346.604,303.201 344.5,303.5C 344.5,301.833 344.5,300.167 344.5,298.5 Z"/></g>
</svg>
